<svg xmlns="http://www.w3.org/2000/svg" viewBox="0 0 512 512">
  <path d="M391.1 224.5c-5.3-2.6-30.6-15.1-35.3-16.8-4.7-1.8-8.2-2.6-11.7 2.6s-13.4 16.8-16.5 20.2-6.1 3.9-11.4 1.3c-31.1-15.6-51.4-27.9-72.1-62.9-5.4-9.3 5.4-8.6 15.5-28.6 1.7-3.5.9-6.5-.4-9-1.3-2.6-11.7-28.2-16.1-38.6-4.2-10.1-8.6-8.7-11.8-8.9-3.1-.2-6.6-.2-10.1-.2s-9.3 1.3-14.2 6.5c-4.9 5.1-19 18.6-19 45.5s19.5 52.9 22.2 56.5c2.6 3.5 38.3 58.3 92.8 81.8 54.5 23.5 54.5 15.7 64.2 14.8 9.8-.9 30.6-12.5 34.9-24.6 4.3-12.1 4.3-22.4 3-24.6-1.2-2.1-4.8-3.4-10.1-5.9z"/>
</svg>